<svg width="506" height="67" viewBox="0 0 506 67" fill="none" xmlns="http://www.w3.org/2000/svg">
<path d="M33.84 40.048C34.368 40.48 35.328 41.224 36.72 42.28C38.112 43.288 39.72 44.464 41.544 45.808C43.416 47.152 45.312 48.52 47.232 49.912C49.152 51.304 50.952 52.624 52.632 53.872C54.312 55.072 55.656 56.056 56.664 56.824C57.72 57.544 58.248 57.904 58.248 57.904C57.912 59.488 57.24 60.952 56.232 62.296C55.224 63.688 54.096 64.768 52.848 65.536C51.936 66.064 51 66.4 50.04 66.544C49.08 66.688 48.12 66.544 47.16 66.112C45.192 65.2 43.2 64 41.184 62.512C39.168 61.024 37.248 59.512 35.424 57.976C33.6 56.392 31.968 55.072 30.528 54.016C29.136 52.96 27.864 52.432 26.712 52.432C25.608 52.432 24.672 52.72 23.904 53.296C23.136 53.824 22.584 54.4 22.248 55.024C21.912 55.648 21.528 56.416 21.096 57.328C20.664 58.24 20.256 59.128 19.872 59.992C19.488 60.808 19.176 61.456 18.936 61.936C18.312 63.088 17.448 63.976 16.344 64.6C15.24 65.272 14.064 65.776 12.816 66.112C11.328 66.496 9.84 66.712 8.352 66.76C6.864 66.808 5.64 66.784 4.68 66.688C3.72 66.592 3.24 66.544 3.24 66.544L30.168 0.231997C30.168 0.231997 30.504 0.303998 31.176 0.447999C31.896 0.543997 32.76 0.759997 33.768 1.096C34.776 1.432 35.784 1.912 36.792 2.536C37.848 3.16 38.712 3.952 39.384 4.912C39.912 5.68 40.272 6.592 40.464 7.648C40.656 8.656 40.56 9.832 40.176 11.176C39.936 11.992 39.432 13.432 38.664 15.496C37.896 17.512 36.96 19.912 35.856 22.696C34.752 25.48 33.552 28.456 32.256 31.624C32.016 32.248 31.8 33.088 31.608 34.144C31.464 35.152 31.536 36.184 31.824 37.24C32.112 38.296 32.784 39.232 33.84 40.048ZM14.688 23.56C14.736 25.816 14.064 27.592 12.672 28.888C11.28 30.136 9.456 30.664 7.2 30.472C4.896 30.28 3.048 29.392 1.656 27.808C0.312 26.224 -0.0959995 24.28 0.432001 21.976C0.816001 20.104 1.704 18.76 3.096 17.944C4.488 17.128 6.048 16.696 7.776 16.648C8.928 16.6 10.008 16.912 11.016 17.584C12.072 18.256 12.936 19.12 13.608 20.176C14.328 21.232 14.688 22.36 14.688 23.56ZM48.024 34.288C45.72 34.048 43.872 33.16 42.48 31.624C41.136 30.04 40.728 28.096 41.256 25.792C41.64 23.92 42.528 22.576 43.92 21.76C45.312 20.944 46.848 20.512 48.528 20.464C49.68 20.416 50.784 20.728 51.84 21.4C52.896 22.072 53.76 22.936 54.432 23.992C55.152 25.048 55.512 26.176 55.512 27.376C55.56 29.632 54.888 31.408 53.496 32.704C52.104 33.952 50.28 34.48 48.024 34.288ZM124.2 57.688L134.712 57.544C135.384 58.216 135.792 58.912 135.936 59.632C136.128 60.304 136.128 60.976 135.936 61.648C135.696 62.512 135.192 63.232 134.424 63.808C133.704 64.432 132.912 64.792 132.048 64.888C131.424 64.936 130.368 64.984 128.88 65.032C127.392 65.08 125.688 65.104 123.768 65.104C121.848 65.152 119.856 65.176 117.792 65.176C115.728 65.224 113.76 65.248 111.888 65.248C110.064 65.248 108.504 65.224 107.208 65.176C105.912 65.176 105.072 65.152 104.688 65.104C102.144 64.864 100.08 64.24 98.496 63.232C96.96 62.224 96.144 60.256 96.048 57.328C96 56.032 96 54.832 96.048 53.728C96.096 52.624 95.976 51.664 95.688 50.848C95.4 50.032 94.68 49.432 93.528 49.048C93.096 48.904 92.568 48.952 91.944 49.192C91.368 49.384 90.816 49.96 90.288 50.92C90 51.4 89.688 51.88 89.352 52.36C89.016 52.792 88.584 53.176 88.056 53.512C87.096 54.136 85.8 54.544 84.168 54.736C82.584 54.928 81.024 54.928 79.488 54.736C77.952 54.496 76.776 54.136 75.96 53.656C74.472 52.744 73.536 51.52 73.152 49.984C72.768 48.4 72.552 46.984 72.504 45.736V6.352H86.04C86.952 6.352 87.672 6.232 88.2 5.992C88.776 5.752 89.064 5.224 89.064 4.408V3.112H135.576C135.576 3.112 135.576 3.616 135.576 4.624C135.576 5.632 135.576 6.928 135.576 8.512C135.576 10.048 135.552 11.656 135.504 13.336C135.504 15.016 135.504 16.528 135.504 17.872C135.504 19.168 135.48 20.08 135.432 20.608C135.384 22.192 134.88 23.464 133.92 24.424C132.96 25.384 131.712 26.008 130.176 26.296C129.6 26.392 128.088 26.44 125.64 26.44C125.304 26.44 124.92 26.656 124.488 27.088C124.104 27.52 123.864 28.264 123.768 29.32C123.72 29.704 123.816 30.184 124.056 30.76C124.296 31.288 124.872 31.552 125.784 31.552H135.216C136.032 32.368 136.32 33.448 136.08 34.792C136.032 35.512 135.768 36.16 135.288 36.736C134.856 37.312 134.208 37.672 133.344 37.816C132.816 37.912 131.64 37.984 129.816 38.032C127.992 38.032 126.12 38.056 124.2 38.104C124.2 38.104 123.936 38.152 123.408 38.248C122.88 38.296 122.568 38.632 122.472 39.256C122.376 39.688 122.472 40 122.76 40.192C123.048 40.384 123.36 40.528 123.696 40.624C124.032 40.672 124.2 40.696 124.2 40.696L133.92 40.552C134.64 41.368 135.048 42.256 135.144 43.216C135.24 43.936 135.024 44.608 134.496 45.232C134.016 45.808 133.104 46.216 131.76 46.456L124.2 46.6C124.2 46.6 123.936 46.648 123.408 46.744C122.88 46.84 122.568 47.2 122.472 47.824C122.424 48.208 122.544 48.496 122.832 48.688C123.12 48.832 123.408 48.928 123.696 48.976C124.032 49.024 124.2 49.048 124.2 49.048L133.992 48.832C135.144 49.84 135.648 50.896 135.504 52C135.456 52.624 135.12 53.2 134.496 53.728C133.92 54.208 133.032 54.544 131.832 54.736C131.64 54.784 130.752 54.832 129.168 54.88C127.632 54.88 125.976 54.904 124.2 54.952C124.2 54.952 123.912 55.048 123.336 55.24C122.808 55.384 122.52 55.744 122.472 56.32C122.424 56.848 122.688 57.208 123.264 57.4C123.888 57.592 124.2 57.688 124.2 57.688ZM114.912 29.392C115.008 29.2 115.104 28.936 115.2 28.6C115.344 28.216 115.44 27.784 115.488 27.304C115.488 27.064 115.368 26.656 115.128 26.08C114.888 25.504 114.648 25.096 114.408 24.856C113.976 24.424 113.616 23.824 113.328 23.056C113.04 22.288 112.92 21.304 112.968 20.104L124.776 20.176C124.776 20.176 125.016 20.128 125.496 20.032C126.024 19.888 126.288 19.552 126.288 19.024C126.288 18.496 126.024 18.184 125.496 18.088C125.016 17.992 124.776 17.944 124.776 17.944C124.776 17.944 124.416 17.944 123.696 17.944C122.976 17.944 122.112 17.944 121.104 17.944C120.144 17.944 119.256 17.944 118.44 17.944C117.624 17.944 117.12 17.92 116.928 17.872C116.544 17.824 116.016 17.68 115.344 17.44C114.672 17.152 114.072 16.576 113.544 15.712C113.064 14.8 112.872 13.408 112.968 11.536L124.704 11.608C124.704 11.608 124.968 11.584 125.496 11.536C126.024 11.44 126.288 11.104 126.288 10.528C126.288 9.952 126.072 9.616 125.64 9.52C125.208 9.424 124.824 9.376 124.488 9.376C124.344 9.376 123.912 9.376 123.192 9.376C122.52 9.376 121.752 9.376 120.888 9.376C120.024 9.376 119.208 9.376 118.44 9.376C117.72 9.376 117.24 9.352 117 9.304C116.568 9.256 116.016 9.112 115.344 8.872C114.72 8.632 114.144 8.248 113.616 7.72C113.376 7.48 113.112 7.504 112.824 7.792C112.584 8.08 112.464 8.416 112.464 8.8C112.464 8.992 112.464 9.64 112.464 10.744C112.464 11.8 112.44 13.024 112.392 14.416C112.392 15.76 112.368 17.032 112.32 18.232C112.32 19.384 112.32 20.176 112.32 20.608C112.176 23.2 110.928 24.952 108.576 25.864C108.336 25.96 107.976 26.152 107.496 26.44C107.064 26.728 106.776 27.352 106.632 28.312C106.44 30.28 106.776 31.36 107.64 31.552C108.456 31.696 109.296 31.768 110.16 31.768C111.024 31.72 111.696 31.648 112.176 31.552C112.704 31.456 113.208 31.192 113.688 30.76C114.216 30.328 114.624 29.872 114.912 29.392ZM101.52 11.608C101.52 11.608 101.784 11.584 102.312 11.536C102.84 11.44 103.104 11.104 103.104 10.528C103.104 9.952 102.888 9.616 102.456 9.52C102.024 9.424 101.664 9.376 101.376 9.376H93.744C93.36 9.376 93 9.448 92.664 9.592C92.328 9.688 92.136 9.928 92.088 10.312C92.04 10.648 92.184 10.936 92.52 11.176C92.856 11.416 93.264 11.536 93.744 11.536L101.52 11.608ZM79.92 19.816C79.92 20.2 79.944 20.8 79.992 21.616C80.04 22.432 80.232 23.176 80.568 23.848C80.904 24.52 81.456 24.856 82.224 24.856C82.992 24.856 83.52 24.544 83.808 23.92C84.144 23.248 84.336 22.528 84.384 21.76C84.48 20.944 84.528 20.344 84.528 19.96C84.528 19.528 84.48 18.952 84.384 18.232C84.336 17.464 84.144 16.792 83.808 16.216C83.52 15.592 82.968 15.28 82.152 15.28C81.48 15.28 80.976 15.592 80.64 16.216C80.304 16.792 80.088 17.44 79.992 18.16C79.944 18.88 79.92 19.432 79.92 19.816ZM101.664 20.176C101.664 20.176 101.904 20.128 102.384 20.032C102.864 19.888 103.104 19.552 103.104 19.024C103.104 18.496 102.864 18.184 102.384 18.088C101.904 17.992 101.664 17.944 101.664 17.944L93.744 17.872C93.264 17.872 92.856 17.992 92.52 18.232C92.232 18.424 92.088 18.664 92.088 18.952C92.088 19.24 92.232 19.504 92.52 19.744C92.856 19.984 93.264 20.104 93.744 20.104L101.664 20.176ZM96.552 28.96C96.648 28.336 96.6 27.856 96.408 27.52C96.216 27.184 95.952 26.896 95.616 26.656C95.28 26.416 94.968 26.296 94.68 26.296C94.392 26.248 94.176 26.224 94.032 26.224C93.408 26.272 92.928 26.512 92.592 26.944C92.304 27.376 92.136 27.856 92.088 28.384C92.088 28.72 92.064 29.368 92.016 30.328C92.016 31.24 92.016 32.2 92.016 33.208C92.064 34.168 92.088 34.936 92.088 35.512C92.136 36.04 92.304 36.352 92.592 36.448C92.88 36.544 93.144 36.376 93.384 35.944C93.576 35.56 93.84 35.008 94.176 34.288C94.512 33.568 94.848 32.824 95.184 32.056C95.568 31.24 95.88 30.544 96.12 29.968C96.408 29.344 96.552 29.008 96.552 28.96ZM84.528 38.608C84.528 38.224 84.504 37.576 84.456 36.664C84.408 35.752 84.216 34.912 83.88 34.144C83.592 33.376 83.016 32.992 82.152 32.992C81.384 32.992 80.832 33.376 80.496 34.144C80.208 34.864 80.04 35.68 79.992 36.592C79.944 37.456 79.92 38.08 79.92 38.464C79.92 38.848 79.944 39.496 79.992 40.408C80.088 41.272 80.28 42.088 80.568 42.856C80.904 43.576 81.456 43.936 82.224 43.936C82.992 43.936 83.52 43.576 83.808 42.856C84.144 42.136 84.336 41.344 84.384 40.48C84.48 39.616 84.528 38.992 84.528 38.608ZM109.944 40.696C110.328 40.6 110.664 40.504 110.952 40.408C111.288 40.264 111.456 39.88 111.456 39.256C111.456 38.68 111.24 38.344 110.808 38.248C110.376 38.152 109.992 38.08 109.656 38.032C109.32 37.984 108.744 37.984 107.928 38.032C107.16 38.032 106.56 38.08 106.128 38.176C105.936 38.224 105.672 38.344 105.336 38.536C105 38.728 104.808 39.016 104.76 39.4C104.76 39.976 104.928 40.336 105.264 40.48C105.648 40.624 105.912 40.72 106.056 40.768C106.728 40.816 107.448 40.84 108.216 40.84C109.032 40.792 109.608 40.744 109.944 40.696ZM109.944 49.264C110.328 49.168 110.664 49.072 110.952 48.976C111.288 48.832 111.456 48.448 111.456 47.824C111.456 47.2 111.24 46.84 110.808 46.744C110.376 46.648 109.992 46.576 109.656 46.528C109.32 46.528 108.744 46.552 107.928 46.6C107.16 46.6 106.56 46.648 106.128 46.744C105.936 46.792 105.672 46.912 105.336 47.104C105 47.248 104.808 47.512 104.76 47.896C104.76 48.52 104.928 48.904 105.264 49.048C105.648 49.192 105.912 49.264 106.056 49.264C106.728 49.312 107.448 49.336 108.216 49.336C109.032 49.336 109.608 49.312 109.944 49.264ZM109.944 57.616C110.328 57.568 110.664 57.472 110.952 57.328C111.288 57.184 111.456 56.824 111.456 56.248C111.456 55.624 111.24 55.264 110.808 55.168C110.376 55.072 109.992 55 109.656 54.952C109.32 54.904 108.744 54.904 107.928 54.952C107.16 54.952 106.56 55 106.128 55.096C105.936 55.144 105.672 55.264 105.336 55.456C105 55.648 104.808 55.936 104.76 56.32C104.76 56.944 104.928 57.328 105.264 57.472C105.648 57.616 105.912 57.688 106.056 57.688C106.728 57.736 107.448 57.76 108.216 57.76C109.032 57.712 109.608 57.664 109.944 57.616ZM206.64 4.192C206.736 4.816 206.808 6.04 206.856 7.864C206.904 9.688 206.952 11.848 207 14.344C207.048 16.84 207.072 19.48 207.072 22.264C207.12 25 207.144 27.664 207.144 30.256C207.144 32.8 207.144 35.032 207.144 36.952C207.144 38.824 207.12 40.144 207.072 40.912C207.024 42.448 206.856 44.296 206.568 46.456C206.328 48.568 205.896 50.68 205.272 52.792C204.648 54.856 203.76 56.632 202.608 58.12C201.408 59.608 200.16 60.688 198.864 61.36C197.616 62.08 196.152 62.632 194.472 63.016C192.984 63.352 190.992 63.592 188.496 63.736C186 63.928 183.336 64.024 180.504 64.024C177.72 64.072 175.056 64.024 172.512 63.88C169.968 63.736 167.856 63.52 166.176 63.232C165.744 63.136 164.976 62.944 163.872 62.656C162.816 62.416 161.616 61.936 160.272 61.216C158.928 60.544 157.656 59.512 156.456 58.12C155.304 56.728 154.416 55.024 153.792 53.008C153.168 50.944 152.736 48.832 152.496 46.672C152.256 44.512 152.112 42.592 152.064 40.912C152.016 39.952 151.992 38.488 151.992 36.52C151.992 34.504 151.992 32.248 151.992 29.752C152.04 27.208 152.088 24.592 152.136 21.904C152.184 19.216 152.232 16.648 152.28 14.2C152.376 11.752 152.448 9.64 152.496 7.864C152.544 6.088 152.592 4.864 152.64 4.192H206.64ZM169.056 15.712C168 16 167.088 16.528 166.32 17.296C165.552 18.016 165.072 18.952 164.88 20.104C164.832 20.392 164.808 20.872 164.808 21.544C164.808 22.216 164.904 22.864 165.096 23.488C165.672 25.072 167.352 26.008 170.136 26.296C170.712 26.344 171.672 26.392 173.016 26.44C174.36 26.488 175.872 26.536 177.552 26.584C179.28 26.584 180.984 26.584 182.664 26.584C184.392 26.536 185.904 26.488 187.2 26.44C188.496 26.392 189.384 26.344 189.864 26.296C191.112 26.152 192.096 25.792 192.816 25.216C193.584 24.64 194.064 24.064 194.256 23.488C194.448 23.104 194.568 22.552 194.616 21.832C194.664 21.064 194.664 20.488 194.616 20.104C194.568 18.904 194.208 17.992 193.536 17.368C192.864 16.696 192.12 16.216 191.304 15.928C190.488 15.64 189.816 15.472 189.288 15.424C188.808 15.328 187.896 15.28 186.552 15.28C185.208 15.232 183.648 15.208 181.872 15.208C180.096 15.208 178.296 15.232 176.472 15.28C174.696 15.28 173.136 15.328 171.792 15.424C170.448 15.472 169.536 15.568 169.056 15.712ZM193.464 47.752C193.848 47.128 194.16 46.48 194.4 45.808C194.64 45.136 194.76 44.224 194.76 43.072C194.76 41.584 194.28 40.456 193.32 39.688C192.408 38.872 191.136 38.368 189.504 38.176C189.12 38.128 188.256 38.104 186.912 38.104C185.616 38.056 184.08 38.032 182.304 38.032C180.528 37.984 178.752 37.984 176.976 38.032C175.248 38.032 173.736 38.056 172.44 38.104C171.192 38.152 170.4 38.2 170.064 38.248C169.536 38.344 168.84 38.488 167.976 38.68C167.16 38.872 166.392 39.28 165.672 39.904C165 40.48 164.616 41.392 164.52 42.64C164.472 43.6 164.544 44.512 164.736 45.376C164.928 46.192 165.168 46.888 165.456 47.464C165.984 48.616 166.776 49.456 167.832 49.984C168.888 50.464 169.824 50.776 170.64 50.92C171.12 51.016 171.936 51.112 173.088 51.208C174.288 51.256 175.632 51.304 177.12 51.352C178.656 51.352 180.192 51.352 181.728 51.352C183.312 51.304 184.704 51.256 185.904 51.208C187.152 51.112 188.064 50.992 188.64 50.848C189.6 50.608 190.488 50.296 191.304 49.912C192.12 49.528 192.84 48.808 193.464 47.752ZM244.792 66.376C241.72 66.376 238.947 65.8 236.472 64.648C233.997 63.496 231.864 61.9173 230.072 59.912C228.323 57.9067 226.979 55.6027 226.04 53C225.101 50.3547 224.632 47.56 224.632 44.616C224.632 40.6907 225.315 37.1707 226.68 34.056C228.045 30.9413 229.944 28.296 232.376 26.12C234.808 23.9013 237.667 22.216 240.952 21.064C244.28 19.8693 247.885 19.272 251.768 19.272C255.608 19.272 259.171 19.848 262.456 21C265.741 22.1093 268.6 23.7093 271.032 25.8C273.507 27.848 275.405 30.28 276.728 33.096C278.093 35.912 278.776 39.0053 278.776 42.376C278.776 44.552 278.456 46.8347 277.816 49.224C277.731 49.6507 277.539 49.992 277.24 50.248C276.941 50.4613 276.621 50.568 276.28 50.568C275.768 50.568 275.299 50.376 274.872 49.992C274.445 49.5653 274.232 49.0747 274.232 48.52C274.232 48.264 274.253 48.072 274.296 47.944C274.808 46.024 275.064 44.168 275.064 42.376C275.064 39.4747 274.424 36.8293 273.144 34.44C271.907 32.008 270.136 29.9173 267.832 28.168C265.571 26.376 262.904 25.032 259.832 24.136C261.283 27.2507 262.456 30.6213 263.352 34.248C264.291 37.8747 264.76 41.3307 264.76 44.616C264.76 51.8267 263.139 57.2667 259.896 60.936C256.696 64.5627 251.661 66.376 244.792 66.376ZM244.792 62.664C250.125 62.664 254.136 61.2773 256.824 58.504C259.555 55.7307 260.963 51.8267 261.048 46.792C261.048 42.696 260.536 38.5787 259.512 34.44C258.531 30.2587 257.037 26.504 255.032 23.176C253.837 23.048 252.664 22.984 251.512 22.984C247.373 22.984 243.597 23.7733 240.184 25.352C236.813 26.888 234.061 29.1493 231.928 32.136C229.837 35.08 228.621 38.664 228.28 42.888C228.152 45.5333 228.429 48.0507 229.112 50.44C229.837 52.8293 230.925 54.9413 232.376 56.776C233.827 58.6107 235.597 60.04 237.688 61.064C239.821 62.1307 242.189 62.664 244.792 62.664ZM335.68 61.144C337.84 59.176 339.568 57.112 340.864 54.952C342.208 52.744 342.976 50.608 343.168 48.544C343.168 48.4 343.168 48.256 343.168 48.112C343.216 47.92 343.24 47.752 343.24 47.608C343.24 44.872 342.136 42.904 339.928 41.704C337.768 40.504 334.96 39.904 331.504 39.904C329.536 39.904 327.544 40.168 325.528 40.696C323.56 41.176 321.592 41.848 319.624 42.712V65.824L303.856 62.296V57.4H311.632L311.2 47.464C309.088 48.904 307.024 50.464 305.008 52.144C302.992 53.824 301.072 55.552 299.248 57.328L293.128 48.76C296.056 46.936 299.008 45.184 301.984 43.504C304.96 41.776 307.912 40.24 310.84 38.896L310.12 23.128H298.096L295.864 17.08L309.832 15.496L309.256 2.32L319.552 4.12V14.344L331.792 12.976V23.128H319.552V35.44C321.712 34.768 323.824 34.24 325.888 33.856C328 33.472 330.064 33.28 332.08 33.28C338.944 33.28 344.152 34.384 347.704 36.592C351.304 38.8 353.104 42.064 353.104 46.384C353.104 46.72 353.08 47.08 353.032 47.464C353.032 47.8 353.008 48.16 352.96 48.544C352.624 51.472 351.448 54.184 349.432 56.68C347.464 59.128 344.416 61.6 340.288 64.096L335.68 61.144ZM355.192 22.12C355.192 24.184 354.448 25.936 352.96 27.376C351.52 28.816 349.792 29.536 347.776 29.536C345.712 29.536 343.96 28.816 342.52 27.376C341.08 25.936 340.36 24.184 340.36 22.12C340.36 20.056 341.08 18.304 342.52 16.864C343.96 15.424 345.712 14.704 347.776 14.704C349.792 14.704 351.52 15.424 352.96 16.864C354.448 18.304 355.192 20.056 355.192 22.12ZM375.136 64.744L374.56 64.024L402.424 38.824L413.8 15.28L373.768 20.104V7.72L414.52 13.768L416.968 8.656L429.064 14.272L409.048 45.016L375.136 64.744ZM490.768 60.352L490.984 52.576L452.68 61.36L449.296 7.72L461.968 7.432L461.896 16.36L505.312 9.808L499.696 60.352H490.768ZM491.92 21.616L461.896 17.944L461.752 49.048L491.056 51.064L491.92 21.616Z" fill="black"/>
</svg>
