<!--?xml version="1.0" encoding="utf-8"?-->
<!-- Generator: Adobe Illustrator 18.1.1, SVG Export Plug-In . SVG Version: 6.00 Build 0)  -->

<svg version="1.1" id="_x32_" xmlns="http://www.w3.org/2000/svg" xmlns:xlink="http://www.w3.org/1999/xlink" x="0px" y="0px" viewBox="0 0 512 512" style="width: 256px; height: 256px; opacity: 1;" xml:space="preserve">
<style type="text/css">
	.st0{fill:#4B4B4B;}
</style>
<g>
	<rect y="239.908" class="st0" width="68.958" height="32.185" style="fill: rgb(182, 148, 0);"></rect>
	<rect x="443.059" y="239.908" class="st0" width="68.941" height="32.185" style="fill: rgb(182, 148, 0);"></rect>
	<polygon class="st0" points="26.248,370.057 42.341,397.943 102.053,363.464 85.961,335.586 	" style="fill: rgb(182, 148, 0);"></polygon>
	<polygon class="st0" points="485.752,141.934 469.658,114.057 409.947,148.536 426.039,176.413 	" style="fill: rgb(182, 148, 0);"></polygon>
	<polygon class="st0" points="114.065,469.658 141.943,485.752 176.422,426.039 148.544,409.947 	" style="fill: rgb(182, 148, 0);"></polygon>
	<polygon class="st0" points="397.952,42.341 370.057,26.248 335.596,85.961 363.473,102.053 	" style="fill: rgb(182, 148, 0);"></polygon>
	<rect x="239.916" y="443.051" class="st0" width="32.185" height="68.949" style="fill: rgb(182, 148, 0);"></rect>
	<rect x="239.916" class="st0" width="32.185" height="68.949" style="fill: rgb(182, 148, 0);"></rect>
	<polygon class="st0" points="335.596,426.039 370.057,485.752 397.952,469.658 363.473,409.947 	" style="fill: rgb(182, 148, 0);"></polygon>
	<polygon class="st0" points="176.422,85.961 141.943,26.248 114.065,42.341 148.544,102.053 	" style="fill: rgb(182, 148, 0);"></polygon>
	<polygon class="st0" points="409.947,363.464 469.658,397.943 485.752,370.057 426.039,335.586 	" style="fill: rgb(182, 148, 0);"></polygon>
	<polygon class="st0" points="102.053,148.536 42.341,114.057 26.248,141.934 85.961,176.413 	" style="fill: rgb(182, 148, 0);"></polygon>
	<path class="st0" d="M256.009,99.926c-86.207,0-156.074,69.877-156.074,156.074c0,86.197,69.868,156.074,156.074,156.074
		c86.188,0,156.074-69.878,156.074-156.074C412.083,169.802,342.197,99.926,256.009,99.926z" style="fill: rgb(182, 148, 0);"></path>
</g>
</svg>
